{"title":"The.Big.Adventure.S01E07.PDTV.x264-NoGRP.mp4","uid":11475436,"size":441761233,"categoryP":"video","categoryS":"tv_shows","magnet":"?xt=urn:btih:60588065c86513751fc5a26dc04091c420dcdf92&amp;dn=The.Big.Adventure.S01E07.PDTV.x264-NoGRP.mp4&amp;tr=udp%3A%2F%2Ftracker.openbittorrent.com%3A80&amp;tr=udp%3A%2F%2Fopen.demonii.com%3A1337&amp;tr=udp%3A%2F%2Ftracker.coppersurfer.tk%3A6969&amp;tr=udp%3A%2F%2Fexodus.desync.com%3A6969","seeders":0,"leechers":1,"uploader":"whowhatwhen2","files":1,"time":1416145068,"description":"The.Big.Adventure.S01E07.PDTV.x264-NoGRP.mp4\n\nFormat : MPEG-4\nFormat profile : Base Media / Version 2\nCodec ID : mp42\nFile size : 421 MiB\nDuration : 44mn 20s\nOverall bit rate mode : Variable\nOverall bit rate : 1 328 Kbps\n\n\nVideo\nID : 1\nFormat : AVC\nFormat/Info : Advanced Video Codec\nFormat profile : &lt;a class=&quot;__cf_email__&quot; href=&quot;/cdn-cgi/l/email-protection&quot; data-cfemail=&quot;377f5e505f777b041906&quot;&gt;[email&amp;#160;protected]&lt;/a&gt;&lt;script cf-hash='f9e31' type=&quot;text/javascript&quot;&gt;\n/* &lt;![CDATA[ */!function(){try{var t=&quot;currentScript&quot;in document?document.currentScript:function(){for(var t=document.getElementsByTagName(&quot;script&quot;),e=t.length;e--;)if(t[e].getAttribute(&quot;cf-hash&quot;))return t[e]}();if(t&amp;&amp;t.previousSibling){var e,r,n,i,c=t.previousSibling,a=c.getAttribute(&quot;data-cfemail&quot;);if(a){for(e=&quot;&quot;,r=parseInt(a.substr(0,2),16),n=2;a.length-n;n+=2)i=parseInt(a.substr(n,2),16)^r,e+=String.fromCharCode(i);e=document.createTextNode(e),c.parentNode.replaceChild(e,c)}}}catch(u){}}();/* ]]&gt; */&lt;/script&gt;\nFormat settings, CABAC : Yes\nFormat settings, ReFrames : 4 frames\nCodec ID/Info : Advanced Video Coding\nDuration : 44mn 20s\nBit rate : 1 164 Kbps\nWidth : 720 pixels\nHeight : 400 pixels\nDisplay aspect ratio : 16:9\nFrame rate mode : Variable\nFrame rate : 25.000 fps\nMinimum frame rate : 25.000 fps\nMaximum frame rate : 72.698 fps\nScan type : Progressive\nStream size : 369 MiB (88%)\nWriting library : x264 core 130 r2273 b3065e6\n\n\nAudio\nID : 2\nFormat : AAC\nFormat/Info : Advanced Audio Codec\nDuration : 44mn 20s\nBit rate mode : Variable\nBit rate : 160 Kbps\nMaximum bit rate : 201 Kbps\nChannel(s) : 2 channels\nChannel positions : Front: L R\nSampling rate : 48.0 KHz\nCompression mode : Lossy\nStream size : 50.7 MiB (12%)\nLanguage : English","torrent":{"xt":"urn:btih:60588065c86513751fc5a26dc04091c420dcdf92","amp;dn":"The.Big.Adventure.S01E07.PDTV.x264-NoGRP.mp4","amp;tr":["udp%3A%2F%2Ftracker.openbittorrent.com%3A80","udp%3A%2F%2Fopen.demonii.com%3A1337","udp%3A%2F%2Ftracker.coppersurfer.tk%3A6969","udp%3A%2F%2Fexodus.desync.com%3A6969"],"infoHash":"60588065c86513751fc5a26dc04091c420dcdf92","infoHashBuffer":{"type":"Buffer","data":[96,88,128,101,200,101,19,117,31,197,162,109,192,64,145,196,32,220,223,146]},"announce":[],"urlList":[]}}